Coordinates
version=1
nRows=7
nColumns=46
inDegrees=yes

Units are S.I. units (second, meters, Newtons, ...)
Angles are in degrees.

endheader
time	pelvis_tilt	pelvis_list	pelvis_rotation	pelvis_tx	pelvis_ty	pelvis_tz	bb_angle	bb_tx	bb_ty	bb_tz	hip_flexion_r	hip_adduction_r	hip_rotation_r	knee_angle_r	knee_angle_r_beta	ankle_angle_r	subtalar_angle_r	mtp_angle_r	crank_angle_r	hip_flexion_l	hip_adduction_l	hip_rotation_l	knee_angle_l	knee_angle_l_beta	ankle_angle_l	subtalar_angle_l	mtp_angle_l	crank_angle_l	lumbar_extension	lumbar_bending	lumbar_rotation	arm_flex_r	arm_add_r	arm_rot_r	elbow_flex_r	pro_sup_r	wrist_flex_r	wrist_dev_r	arm_flex_l	arm_add_l	arm_rot_l	elbow_flex_l	pro_sup_l	wrist_flex_l	wrist_dev_l
      2.50000000	    -14.30429932	     -2.31091978	     -0.29516457	      0.09017544	      1.13503141	     -0.28541731	      0.00000000	      0.50000000	      0.00000000	      0.25000000	     67.77195361	     -7.06790735	     -2.51725457	     99.48495900	      1.73634009	     12.05229034	     -5.21660466	      0.00000000	      0.00000000	     57.76688817	     -6.30436593	      2.45652269	     45.44163249	      0.79310610	     -0.23600821	     -3.79717059	      0.00000000	      0.00000000	    -52.61002161	      0.19116131	     -2.29626168	     89.33451468	     -1.50788713	     32.31675983	     55.98506030	     32.96106910	      0.00000000	      0.00000000	     87.21146569	    -19.32292229	     77.89641395	     19.72833200	     47.86364413	      0.00000000	      0.00000000
      2.50500000	    -14.16743582	     -2.43565513	     -0.39024983	      0.09027104	      1.13499985	     -0.28565841	      0.00000000	      0.50000000	      0.00000000	      0.25000000	     68.17640611	     -7.04300416	     -2.52041778	    100.18691648	      1.74859156	     12.27608600	     -5.00354186	      0.00000000	      0.00000000	     57.01107486	     -6.45865575	      2.41497419	     44.64889164	      0.77927017	     -0.55908496	     -3.66062203	      0.00000000	      0.00000000	    -52.70613855	      0.27023337	     -2.15877330	     89.34391097	     -1.49148266	     32.54441749	     56.25027293	     31.10241751	      0.00000000	      0.00000000	     87.15252419	    -19.30048468	     77.53894620	     19.52389093	     49.07559473	      0.00000000	      0.00000000
      2.51000000	    -13.95441684	     -2.53083108	     -0.46337926	      0.09044954	      1.13509128	     -0.28591401	      0.00000000	      0.50000000	      0.00000000	      0.25000000	     68.50654056	     -7.05606340	     -2.51058517	    100.89072813	      1.76087539	     12.49887974	     -4.76952532	      0.00000000	      0.00000000	     56.15971951	     -6.60679025	      2.28888885	     43.84931236	      0.76531488	     -0.87468532	     -3.46051612	      0.00000000	      0.00000000	    -52.89171933	      0.31827414	     -1.94577941	     89.34633778	     -1.65420688	     32.67747069	     56.38032069	     30.91488761	      0.00000000	      0.00000000	     87.08138533	    -19.01702904	     77.32052747	     19.23560690	     48.87323336	      0.00000000	      0.00000000
      2.51500000	    -13.75401629	     -2.65748892	     -0.52490917	      0.09067251	      1.13514022	     -0.28619054	      0.00000000	      0.50000000	      0.00000000	      0.25000000	     68.85629909	     -7.07428632	     -2.54107922	    101.58912211	      1.77306467	     12.66831255	     -4.58784380	      0.00000000	      0.00000000	     55.33600322	     -6.76911734	      2.18735668	     43.09152620	      0.75208901	     -1.17081769	     -3.24081601	      0.00000000	      0.00000000	    -53.04807229	      0.40489082	     -1.73239475	     89.35410506	     -1.74508090	     32.70915099	     56.25615817	     31.35761818	      0.00000000	      0.00000000	     86.95145098	    -18.72502265	     76.91171191	     18.96621987	     48.33355169	      0.00000000	      0.00000000
      2.52000000	    -13.57895807	     -2.82954561	     -0.63951963	      0.09094521	      1.13511411	     -0.28629404	      0.00000000	      0.50000000	      0.00000000	      0.25000000	     69.22667610	     -6.97578714	     -2.58410491	    102.26348358	      1.78483449	     12.86054143	     -4.45212168	      0.00000000	      0.00000000	     54.54345643	     -7.05173645	      2.00475022	     42.35211710	      0.73918389	     -1.37645684	     -2.88034484	      0.00000000	      0.00000000	    -53.21628081	      0.56508914	     -1.68499738	     89.37812932	     -1.43611340	     32.77443633	     56.10941991	     31.52041128	      0.00000000	      0.00000000	     86.43107475	    -19.07249221	     74.26520876	     19.87465425	     48.05573539	      0.00000000	      0.00000000
      2.52500000	    -13.42333432	     -2.97348952	     -0.70504027	      0.09122499	      1.13503572	     -0.28662097	      0.00000000	      0.50000000	      0.00000000	      0.25000000	     69.64374578	     -6.97648589	     -2.61092009	    102.94346878	      1.79670247	     12.97866709	     -4.23521723	      0.00000000	      0.00000000	     53.78050039	     -7.25971884	      1.82911910	     41.64130753	      0.72677792	     -1.61827480	     -2.56946382	      0.00000000	      0.00000000	    -53.32233515	      0.64309855	     -1.33047659	     89.36640290	     -1.70764513	     32.85610054	     56.32972503	     31.08476300	      0.00000000	      0.00000000	     86.81750339	    -18.82901044	     77.10452488	     19.18199036	     48.31945254	      0.00000000	      0.00000000
      2.53000000	    -13.16483370	     -3.07816655	     -0.73809335	      0.09158343	      1.13517143	     -0.28710036	      0.00000000	      0.50000000	      0.00000000	      0.25000000	     69.94493829	     -7.04664509	     -2.62381079	    103.61252496	      1.80837971	     13.19941685	     -4.09869367	      0.00000000	      0.00000000	     52.86992115	     -7.41036089	      1.61662173	     40.88798836	      0.71363002	     -1.81010224	     -2.21652049	      0.00000000	      0.00000000	    -53.55708988	      0.76622635	     -1.18247895	     89.36741733	     -1.72568300	     32.85335704	     56.25361991	     31.49369112	      0.00000000	      0.00000000	     86.72281310	    -18.76073097	     76.96622119	     19.20906050	     47.89804275	      0.00000000	      0.00000000
